<svg width="240" height="64" viewBox="0 0 240 64" fill="none" xmlns="http://www.w3.org/2000/svg">
<g filter="url(#filter0_d_0_185)">
<mask id="path-1-inside-1_0_185" fill="white">
<path d="M0.907387 25.9842C1.40852 11.6335 13.4483 0.406251 27.7989 0.907387L210.687 7.29399C225.038 7.79513 236.265 19.8349 235.764 34.1855C235.263 48.5362 223.223 59.7635 208.873 59.2623L25.9842 52.8757C11.6335 52.3746 0.406251 40.3348 0.907387 25.9842Z"/>
</mask>
<path d="M0.907387 25.9842C1.40852 11.6335 13.4483 0.406251 27.7989 0.907387L210.687 7.29399C225.038 7.79513 236.265 19.8349 235.764 34.1855C235.263 48.5362 223.223 59.7635 208.873 59.2623L25.9842 52.8757C11.6335 52.3746 0.406251 40.3348 0.907387 25.9842Z" fill="#FFB626" shape-rendering="crispEdges"/>
<path d="M27.7989 0.907387L27.7291 2.90617L210.618 9.29278L210.687 7.29399L210.757 5.29521L27.8687 -1.09139L27.7989 0.907387ZM208.873 59.2623L208.942 57.2635L26.054 50.8769L25.9842 52.8757L25.9144 54.8745L208.803 61.2611L208.873 59.2623ZM25.9842 52.8757L26.054 50.8769C12.8072 50.4143 2.44358 39.3007 2.90617 26.054L0.907387 25.9842L-1.09139 25.9144C-1.63108 41.3689 10.4598 54.3348 25.9144 54.8745L25.9842 52.8757ZM235.764 34.1855L233.765 34.1157C233.303 47.3625 222.189 57.7261 208.942 57.2635L208.873 59.2623L208.803 61.2611C224.257 61.8008 237.223 49.7099 237.763 34.2553L235.764 34.1855ZM210.687 7.29399L210.618 9.29278C223.864 9.75536 234.228 20.869 233.765 34.1157L235.764 34.1855L237.763 34.2553C238.303 18.8008 226.212 5.8349 210.757 5.29521L210.687 7.29399ZM27.7989 0.907387L27.8687 -1.09139C12.4142 -1.63108 -0.55171 10.4598 -1.09139 25.9144L0.907387 25.9842L2.90617 26.054C3.36876 12.8072 14.4824 2.44358 27.7291 2.90617L27.7989 0.907387Z" fill="black" mask="url(#path-1-inside-1_0_185)"/>
<path d="M34.0247 32.1437L31.0435 32.0396L34.7576 21.9813L38.5337 22.1131L41.5371 32.406L38.556 32.3019L36.5876 24.8508L36.5081 24.8481L34.0247 32.1437ZM33.6084 28.1097L39.2129 28.3054L39.1408 30.3723L33.5362 30.1766L33.6084 28.1097ZM43.0665 32.4594L43.4218 22.2838L47.814 22.4372C48.5692 22.4636 49.2249 22.6357 49.7809 22.9536C50.3369 23.2715 50.7628 23.7059 51.0586 24.2568C51.3544 24.8077 51.4897 25.4442 51.4645 26.1663C51.4391 26.895 51.2547 27.5204 50.9115 28.0423C50.5716 28.5644 50.1051 28.9593 49.512 29.2272C48.9223 29.4951 48.2399 29.6155 47.4648 29.5885L44.8414 29.4968L44.9164 27.3504L46.9833 27.4226C47.3079 27.4339 47.5864 27.3873 47.8189 27.2826C48.0548 27.1748 48.2378 27.017 48.3677 26.8093C48.501 26.6017 48.5727 26.3538 48.5827 26.0657C48.5929 25.7742 48.5387 25.5235 48.42 25.3138C48.3047 25.1008 48.133 24.9356 47.905 24.8182C47.6804 24.6976 47.4057 24.6317 47.0811 24.6203L46.1073 24.5863L45.829 32.5559L43.0665 32.4594ZM52.7976 32.7993L53.153 22.6236L57.5452 22.777C58.3004 22.8034 58.9564 22.9639 59.5133 23.2586C60.0701 23.5533 60.4968 23.9646 60.7934 24.4923C61.0901 25.02 61.2258 25.6449 61.2005 26.367C61.1751 27.0957 60.9913 27.7045 60.6493 28.1933C60.3105 28.6823 59.8452 29.0441 59.2533 29.2788C58.6647 29.5136 57.9829 29.6175 57.2078 29.5904L54.5844 29.4988L54.6593 27.3524L56.7263 27.4246C57.0509 27.4359 57.3288 27.4058 57.5602 27.3343C57.7949 27.2596 57.9767 27.1349 58.1055 26.9603C58.2376 26.7859 58.3087 26.5545 58.3188 26.2664C58.329 25.9749 58.2743 25.7358 58.1548 25.5493C58.0387 25.3595 57.8662 25.2175 57.6374 25.1233C57.4119 25.0259 57.1369 24.9715 56.8123 24.9602L55.8385 24.9261L55.5602 32.8957L52.7976 32.7993ZM58.923 28.337L61.3038 33.0963L58.3028 32.9915L55.9816 28.2343L58.923 28.337ZM62.6928 33.1448L63.0481 22.9692L70.3817 23.2253L70.304 25.4512L65.7329 25.2916L65.6718 27.0405L69.8653 27.1869L69.7876 29.4129L65.5941 29.2664L65.533 31.0153L70.0842 31.1743L70.0065 33.4002L62.6928 33.1448ZM81.1054 23.5998L80.75 33.7754L78.4446 33.6949L74.9546 28.2203L74.895 28.2182L74.7083 33.5644L71.9457 33.4679L72.3011 23.2923L74.6462 23.3742L78.0774 28.8268L78.1569 28.8296L78.3429 23.5033L81.1054 23.5998ZM86.5213 33.9769L82.606 33.8402L82.9614 23.6646L86.8369 23.7999C87.8836 23.8365 88.7807 24.0717 89.5284 24.5058C90.2794 24.9366 90.8486 25.5402 91.2361 26.3165C91.627 27.0896 91.8039 28.0061 91.7669 29.0661C91.7299 30.126 91.491 31.0297 91.0504 31.7771C90.6098 32.5212 90.0032 33.0837 89.2304 33.4646C88.4578 33.8422 87.5547 34.013 86.5213 33.9769ZM85.4505 31.5915L86.5038 31.6283C87.0073 31.6459 87.4391 31.5797 87.7992 31.4298C88.1626 31.2799 88.4439 31.0095 88.6433 30.6185C88.846 30.2276 88.9597 29.6778 88.9845 28.9689C89.0092 28.2601 88.9325 27.7035 88.7543 27.2993C88.5793 26.8953 88.3109 26.6057 87.9489 26.4305C87.5902 26.2555 87.1458 26.1587 86.6158 26.1402L85.642 26.1062L85.4505 31.5915ZM93.4166 34.2177L93.772 24.0421L101.106 24.2982L101.028 26.5241L96.4568 26.3645L96.3957 28.1134L100.589 28.2598L100.511 30.4858L96.318 30.3393L96.2569 32.0883L100.808 32.2472L100.73 34.4731L93.4166 34.2177ZM102.67 34.5408L103.025 24.3652L107.417 24.5186C108.172 24.545 108.828 24.7055 109.385 25.0002C109.942 25.2949 110.369 25.7061 110.665 26.2338C110.962 26.7616 111.098 27.3865 111.072 28.1086C111.047 28.8373 110.863 29.4461 110.521 29.9349C110.182 30.4238 109.717 30.7857 109.125 31.0204C108.537 31.2552 107.855 31.359 107.08 31.332L104.456 31.2404L104.531 29.0939L106.598 29.1661C106.923 29.1775 107.201 29.1474 107.432 29.0759C107.667 29.0011 107.849 28.8765 107.977 28.7019C108.11 28.5274 108.181 28.2961 108.191 28.0079C108.201 27.7164 108.146 27.4774 108.027 27.2908C107.911 27.1011 107.738 26.9591 107.509 26.8648C107.284 26.7674 107.009 26.7131 106.684 26.7017L105.71 26.6677L105.432 34.6373L102.67 34.5408ZM108.795 30.0786L111.176 34.8379L108.175 34.7331L105.854 29.9759L108.795 30.0786ZM115.901 35.0029L116.257 24.8273L120.669 24.9813C121.444 25.0084 122.091 25.1355 122.611 25.3625C123.133 25.5897 123.522 25.8985 123.777 26.2888C124.035 26.6792 124.155 27.1327 124.137 27.6495C124.124 28.0238 124.03 28.3621 123.853 28.6643C123.68 28.9667 123.443 29.2171 123.141 29.4155C122.839 29.6105 122.489 29.7409 122.092 29.8067L122.089 29.9061C122.525 29.9379 122.919 30.0627 123.27 30.2806C123.62 30.4951 123.895 30.785 124.095 31.1501C124.294 31.5119 124.386 31.933 124.369 32.4133C124.35 32.9698 124.187 33.4599 123.88 33.8836C123.577 34.3075 123.154 34.6343 122.612 34.8641C122.07 35.0939 121.43 35.1959 120.691 35.1701L115.901 35.0029ZM118.741 32.8933L120.033 32.9384C120.496 32.9546 120.847 32.8806 121.085 32.7165C121.323 32.549 121.448 32.2947 121.46 31.9535C121.468 31.715 121.421 31.5111 121.317 31.3417C121.214 31.1722 121.062 31.0409 120.863 30.9477C120.668 30.8547 120.429 30.8032 120.147 30.7934L118.816 30.7469L118.741 32.8933ZM118.876 29.0377L120.008 29.0773C120.25 29.0857 120.465 29.0551 120.653 28.9854C120.841 28.9157 120.989 28.8114 121.097 28.6725C121.208 28.5305 121.267 28.3551 121.275 28.1465C121.286 27.8318 121.181 27.5877 120.962 27.4142C120.743 27.2374 120.461 27.143 120.116 27.131L118.944 27.09L118.876 29.0377ZM125.797 35.3484L126.152 25.1728L130.544 25.3262C131.299 25.3526 131.955 25.5131 132.512 25.8078C133.069 26.1025 133.496 26.5137 133.792 27.0414C134.089 27.5692 134.225 28.1941 134.199 28.9162C134.174 29.6449 133.99 30.2537 133.648 30.7425C133.309 31.2315 132.844 31.5933 132.252 31.828C131.664 32.0628 130.982 32.1667 130.207 32.1396L127.583 32.048L127.658 29.9016L129.725 29.9737C130.05 29.9851 130.328 29.955 130.559 29.8835C130.794 29.8088 130.976 29.6841 131.104 29.5095C131.236 29.335 131.308 29.1037 131.318 28.8155C131.328 28.5241 131.273 28.285 131.154 28.0984C131.038 27.9087 130.865 27.7667 130.636 27.6725C130.411 27.575 130.136 27.5207 129.811 27.5093L128.837 27.4753L128.559 35.4449L125.797 35.3484ZM131.922 30.8862L134.303 35.6455L131.302 35.5407L128.98 30.7835L131.922 30.8862ZM138.81 25.6148L138.454 35.7904L135.692 35.694L136.047 25.5184L138.81 25.6148ZM149.472 25.9872L149.117 36.1628L146.812 36.0823L143.322 30.6077L143.262 30.6056L143.075 35.9518L140.313 35.8553L140.668 25.6797L143.013 25.7616L146.444 31.2142L146.524 31.217L146.71 25.8907L149.472 25.9872ZM160.695 30.1996L157.893 30.1017C157.881 29.8692 157.835 29.657 157.756 29.4652C157.679 29.2735 157.569 29.1071 157.425 28.9661C157.284 28.8219 157.111 28.7097 156.904 28.6296C156.698 28.5461 156.463 28.4997 156.198 28.4905C155.734 28.4743 155.338 28.5732 155.009 28.7872C154.683 29.0013 154.43 29.3159 154.249 29.7307C154.072 30.1458 153.973 30.6481 153.953 31.2377C153.931 31.8604 153.996 32.385 154.147 32.8114C154.301 33.2347 154.534 33.5579 154.844 33.781C155.155 34.0007 155.534 34.1184 155.981 34.1341C156.236 34.143 156.466 34.1195 156.67 34.0636C156.874 34.0044 157.053 33.9161 157.206 33.7988C157.36 33.6814 157.486 33.5383 157.585 33.3692C157.687 33.197 157.758 33.0022 157.799 32.7848L160.601 32.9025C160.552 33.3319 160.416 33.7666 160.192 34.2065C159.968 34.6431 159.657 35.0434 159.259 35.4076C158.865 35.7686 158.383 36.0536 157.812 36.2625C157.241 36.4714 156.583 36.5628 155.837 36.5368C154.903 36.5041 154.072 36.2745 153.344 35.8478C152.62 35.4212 152.055 34.8112 151.652 34.0177C151.252 33.2244 151.072 32.2646 151.111 31.1384C151.15 30.0056 151.402 29.0592 151.867 28.2994C152.331 27.5363 152.941 26.9689 153.697 26.5974C154.453 26.2225 155.288 26.051 156.202 26.0829C156.845 26.1053 157.433 26.2138 157.967 26.4082C158.501 26.6026 158.965 26.8758 159.361 27.2279C159.757 27.5767 160.07 28.0006 160.302 28.4995C160.533 28.9984 160.664 29.5651 160.695 30.1996ZM164.604 36.7036L161.623 36.5995L165.337 26.5412L169.114 26.6731L172.117 36.966L169.136 36.8619L167.167 29.4108L167.088 29.408L164.604 36.7036ZM164.188 32.6696L169.793 32.8653L169.721 34.9322L164.116 34.7365L164.188 32.6696ZM182.806 27.1512L182.451 37.3268L180.145 37.2463L176.655 31.7718L176.595 31.7697L176.409 37.1158L173.646 37.0194L174.002 26.8438L176.347 26.9257L179.778 32.3783L179.857 32.381L180.043 27.0547L182.806 27.1512ZM188.222 37.5284L184.307 37.3916L184.662 27.216L188.537 27.3514C189.584 27.3879 190.481 27.6232 191.229 28.0572C191.98 28.4881 192.549 29.0916 192.937 29.8679C193.327 30.641 193.504 31.5576 193.467 32.6175C193.43 33.6775 193.192 34.5812 192.751 35.3286C192.31 36.0726 191.704 36.6351 190.931 37.0161C190.158 37.3937 189.255 37.5645 188.222 37.5284ZM187.151 35.1429L188.204 35.1797C188.708 35.1973 189.14 35.1311 189.5 34.9812C189.863 34.8314 190.144 34.561 190.344 34.17C190.547 33.7791 190.66 33.2292 190.685 32.5204C190.71 31.8115 190.633 31.255 190.455 30.8508C190.28 30.4467 190.011 30.1571 189.649 29.982C189.291 29.8069 188.846 29.7102 188.316 29.6917L187.343 29.6577L187.151 35.1429ZM205.152 33.0256C205.113 34.1584 204.859 35.1063 204.392 35.8694C203.924 36.6291 203.309 37.1963 202.546 37.5709C201.784 37.9423 200.942 38.1119 200.021 38.0797C199.094 38.0473 198.263 37.8176 197.528 37.3907C196.797 36.9606 196.225 36.3503 195.811 35.5598C195.401 34.7661 195.216 33.8062 195.255 32.68C195.295 31.5471 195.547 30.6008 196.011 29.841C196.479 29.0779 197.092 28.5107 197.851 28.1392C198.614 27.7646 199.459 27.5935 200.386 27.6258C201.307 27.658 202.135 27.8875 202.869 28.3145C203.604 28.7381 204.178 29.3468 204.592 30.1406C205.005 30.9311 205.192 31.8928 205.152 33.0256ZM202.31 32.9263C202.332 32.3169 202.268 31.8006 202.121 31.3776C201.976 30.9514 201.751 30.6251 201.444 30.3988C201.14 30.1693 200.759 30.0466 200.302 30.0306C199.845 30.0147 199.455 30.1105 199.133 30.3181C198.814 30.5226 198.566 30.8323 198.389 31.2473C198.216 31.6591 198.118 32.1697 198.097 32.7792C198.076 33.3887 198.137 33.9065 198.282 34.3328C198.429 34.7558 198.655 35.082 198.959 35.3115C199.266 35.5378 199.648 35.659 200.105 35.6749C200.562 35.6909 200.95 35.5966 201.269 35.3922C201.591 35.1846 201.839 34.8749 202.013 34.4631C202.19 34.0481 202.289 33.5358 202.31 32.9263Z" fill="black"/>
</g>
<defs>
<filter id="filter0_d_0_185" x="1.54674e-05" y="0" width="240.672" height="64.1697" filterUnits="userSpaceOnUse" color-interpolation-filters="sRGB">
<feFlood flood-opacity="0" result="BackgroundImageFix"/>
<feColorMatrix in="SourceAlpha" type="matrix" values="0 0 0 0 0 0 0 0 0 0 0 0 0 0 0 0 0 0 127 0" result="hardAlpha"/>
<feOffset dx="4" dy="4"/>
<feComposite in2="hardAlpha" operator="out"/>
<feColorMatrix type="matrix" values="0 0 0 0 0 0 0 0 0 0 0 0 0 0 0 0 0 0 1 0"/>
<feBlend mode="normal" in2="BackgroundImageFix" result="effect1_dropShadow_0_185"/>
<feBlend mode="normal" in="SourceGraphic" in2="effect1_dropShadow_0_185" result="shape"/>
</filter>
</defs>
</svg>
