<svg width="100" height="100" viewBox="0 0 100 100" fill="none" xmlns="http://www.w3.org/2000/svg">
<g filter="url(#filter0_d_0_181)">
<mask id="path-1-inside-1_0_181" fill="white">
<path d="M0 16C0 7.16345 7.16344 0 16 0H80C88.8366 0 96 7.16344 96 16V80C96 88.8366 88.8366 96 80 96H16C7.16345 96 0 88.8366 0 80V16Z"/>
</mask>
<path d="M0 16C0 7.16345 7.16344 0 16 0H80C88.8366 0 96 7.16344 96 16V80C96 88.8366 88.8366 96 80 96H16C7.16345 96 0 88.8366 0 80V16Z" fill="#FDB933" shape-rendering="crispEdges"/>
<path d="M16 0V4H80V0V-4H16V0ZM96 16H92V80H96H100V16H96ZM80 96V92H16V96V100H80V96ZM0 80H4V16H0H-4V80H0ZM16 96V92C9.37258 92 4 86.6274 4 80H0H-4C-4 91.0457 4.95431 100 16 100V96ZM96 80H92C92 86.6274 86.6274 92 80 92V96V100C91.0457 100 100 91.0457 100 80H96ZM80 0V4C86.6274 4 92 9.37258 92 16H96H100C100 4.95431 91.0457 -4 80 -4V0ZM16 0V-4C4.95431 -4 -4 4.95431 -4 16H0H4C4 9.37258 9.37258 4 16 4V0Z" fill="black" mask="url(#path-1-inside-1_0_181)"/>
<g clip-path="url(#clip0_0_181)">
<path d="M68 56.4204C67.9062 51.2017 67.2898 45.9243 66.2789 40.5978C65.4554 36.897 62.4929 33.6009 57.7593 33.3595C54.2648 33.2157 53.589 35.2064 49.6297 35.1681C48.5453 35.161 47.4617 35.161 46.3773 35.1681C42.4172 35.2064 41.7398 33.2157 38.2468 33.3595C33.5125 33.6009 30.4578 36.8884 29.7242 40.5978C28.7125 45.9243 28.0961 51.2009 28.0031 56.4196C27.9804 60.0532 31.5679 62.4704 33.9351 62.636C38.5078 62.9814 42.1406 54.9181 44.9086 54.9173C46.9718 54.929 49.0343 54.9298 51.0976 54.9173C53.8664 54.9173 57.4961 62.9821 62.0718 62.6368C64.4383 62.4712 68.1187 60.0376 68.0008 56.4204H68ZM42.9172 46.2376H40.7843V48.3704C40.7843 49.2704 40.0547 50.0001 39.1547 50.0001C38.2547 50.0001 37.525 49.2704 37.525 48.3704V46.2376H35.3922C34.4922 46.2376 33.7625 45.5079 33.7625 44.6079C33.7625 43.7079 34.4922 42.9782 35.3922 42.9782H37.525V40.8454C37.525 39.9454 38.2547 39.2157 39.1547 39.2157C40.0547 39.2157 40.7843 39.9454 40.7843 40.8454V42.9782H42.9172C43.8172 42.9782 44.5468 43.7079 44.5468 44.6079C44.5468 45.5079 43.8172 46.2376 42.9172 46.2376ZM56.0867 49.9993C54.8109 50.0337 53.75 49.0259 53.7156 47.7509C53.682 46.4712 54.6906 45.4087 55.9656 45.3759C57.2422 45.3439 58.3047 46.3509 58.3375 47.6274C58.3695 48.904 57.3625 49.9665 56.0867 49.9993ZM59.9343 43.8392C58.6586 43.8751 57.5953 42.8665 57.5601 41.5907C57.5281 40.3126 58.5351 39.2517 59.8117 39.2165C61.0898 39.1829 62.1507 40.1915 62.1851 41.4681C62.2187 42.7439 61.2093 43.8071 59.9343 43.8392Z" fill="#232323"/>
</g>
</g>
<defs>
<filter id="filter0_d_0_181" x="0" y="0" width="100" height="100" filterUnits="userSpaceOnUse" color-interpolation-filters="sRGB">
<feFlood flood-opacity="0" result="BackgroundImageFix"/>
<feColorMatrix in="SourceAlpha" type="matrix" values="0 0 0 0 0 0 0 0 0 0 0 0 0 0 0 0 0 0 127 0" result="hardAlpha"/>
<feOffset dx="4" dy="4"/>
<feComposite in2="hardAlpha" operator="out"/>
<feColorMatrix type="matrix" values="0 0 0 0 0 0 0 0 0 0 0 0 0 0 0 0 0 0 1 0"/>
<feBlend mode="normal" in2="BackgroundImageFix" result="effect1_dropShadow_0_181"/>
<feBlend mode="normal" in="SourceGraphic" in2="effect1_dropShadow_0_181" result="shape"/>
</filter>
<clipPath id="clip0_0_181">
<rect width="40" height="40" fill="white" transform="translate(28 28)"/>
</clipPath>
</defs>
</svg>
