<svg width="224" height="99" viewBox="0 0 224 99" fill="none" xmlns="http://www.w3.org/2000/svg">
<g filter="url(#filter0_d_0_139)">
<mask id="path-1-inside-1_0_139" fill="white">
<path d="M3.97208 60.4181C1.77836 39.5463 16.92 20.8479 37.7918 18.6542L177.483 3.97208C198.355 1.77837 217.053 16.92 219.247 37.7918C221.441 58.6637 206.299 77.362 185.427 79.5557L45.736 94.2379C24.8642 96.4316 6.1658 81.29 3.97208 60.4181Z"/>
</mask>
<path d="M3.97208 60.4181C1.77836 39.5463 16.92 20.8479 37.7918 18.6542L177.483 3.97208C198.355 1.77837 217.053 16.92 219.247 37.7918C221.441 58.6637 206.299 77.362 185.427 79.5557L45.736 94.2379C24.8642 96.4316 6.1658 81.29 3.97208 60.4181Z" fill="#FFCF00" shape-rendering="crispEdges"/>
<path d="M37.7918 18.6542L38.2099 22.6323L177.901 7.95017L177.483 3.97208L177.065 -0.00600283L37.3737 14.6761L37.7918 18.6542ZM185.427 79.5557L185.009 75.5777L45.3179 90.2598L45.736 94.2379L46.1541 98.216L185.845 83.5338L185.427 79.5557ZM45.736 94.2379L45.3179 90.2598C26.6431 92.2226 9.91297 78.6748 7.95017 60L3.97208 60.4181L-0.00600602 60.8362C2.41863 83.9051 23.0853 100.641 46.1541 98.216L45.736 94.2379ZM219.247 37.7918L215.269 38.2099C217.232 56.8848 203.684 73.6149 185.009 75.5777L185.427 79.5557L185.845 83.5338C208.914 81.1092 225.65 60.4426 223.225 37.3737L219.247 37.7918ZM177.483 3.97208L177.901 7.95017C196.576 5.98737 213.306 19.5351 215.269 38.2099L219.247 37.7918L223.225 37.3737C220.8 14.3048 200.134 -2.43064 177.065 -0.00600283L177.483 3.97208ZM37.7918 18.6542L37.3737 14.6761C14.3048 17.1008 -2.43064 37.7674 -0.00600602 60.8362L3.97208 60.4181L7.95017 60C5.98737 41.3252 19.5351 24.5951 38.2099 22.6323L37.7918 18.6542Z" fill="black" mask="url(#path-1-inside-1_0_139)"/>
<path d="M34.7856 64.2179L33.2652 49.7522L37.1924 49.3394L38.3802 60.6408L44.2287 60.0261L44.5613 63.1905L34.7856 64.2179ZM46.4472 48.3667L50.4858 58.2544L50.5988 58.2425L52.4934 47.7312L56.9292 47.265L53.6748 62.2326L48.3066 62.7968L42.0114 48.8329L46.4472 48.3667ZM59.3961 61.6313L57.8757 47.1655L61.8029 46.7527L62.9908 58.0541L68.8392 57.4394L69.1718 60.6038L59.3961 61.6313ZM77.9661 44.854C78.809 44.7654 79.6213 44.8157 80.4029 45.0049C81.184 45.1894 81.8941 45.5361 82.5332 46.045C83.177 46.5534 83.712 47.2494 84.1381 48.133C84.5685 49.0114 84.8543 50.1002 84.9956 51.3993C85.125 52.5855 85.0888 53.6677 84.8869 54.6458C84.6892 55.6188 84.3475 56.4664 83.8616 57.1888C83.3804 57.9107 82.7699 58.489 82.0301 58.9238C81.2944 59.3535 80.451 59.6183 79.4998 59.7182C78.4309 59.8306 77.4699 59.7245 76.617 59.3999C75.764 59.0754 75.0609 58.5923 74.5079 57.9505C73.9548 57.3088 73.5937 56.5684 73.4246 55.7292L77.2953 55.3223C77.4355 55.7504 77.6761 56.0464 78.0171 56.2106C78.3576 56.37 78.735 56.4279 79.1494 56.3843C79.9782 56.2972 80.5457 55.8758 80.8519 55.1199C81.1623 54.3589 81.2567 53.3777 81.1352 52.1764L81.0505 52.1854C80.9133 52.6473 80.6754 53.0556 80.3365 53.4102C79.9977 53.7648 79.5899 54.0528 79.1133 54.2743C78.6367 54.4958 78.1229 54.6355 77.572 54.6934C76.7008 54.7849 75.9174 54.6697 75.2218 54.3476C74.5257 54.0209 73.9581 53.5354 73.5191 52.8912C73.0795 52.2423 72.8114 51.4802 72.7146 50.6048C72.602 49.5788 72.75 48.6539 73.1585 47.8302C73.5671 47.0064 74.1844 46.3345 75.0105 45.8145C75.8366 45.2944 76.8218 44.9742 77.9661 44.854ZM78.3061 47.8176C77.9153 47.8587 77.5763 47.9848 77.289 48.1959C77.0064 48.4065 76.7941 48.674 76.652 48.9984C76.5147 49.3223 76.4687 49.6771 76.514 50.0627C76.5593 50.4483 76.6827 50.7853 76.8844 51.0735C77.0908 51.3613 77.3518 51.5791 77.6672 51.7268C77.9874 51.8741 78.3429 51.9272 78.7338 51.8861C79.021 51.8559 79.2819 51.7785 79.5163 51.6539C79.7503 51.5245 79.9471 51.3587 80.1068 51.1562C80.2706 50.9485 80.3891 50.7171 80.4623 50.4618C80.5396 50.2014 80.5608 49.9278 80.526 49.641C80.4807 49.2554 80.3548 48.9187 80.1484 48.6309C79.942 48.3431 79.6787 48.1256 79.3585 47.9784C79.0384 47.8311 78.6876 47.7775 78.3061 47.8176ZM91.1357 43.4698C91.9786 43.3812 92.7909 43.4315 93.5725 43.6207C94.3537 43.8052 95.0638 44.1519 95.7029 44.6608C96.3467 45.1692 96.8816 45.8652 97.3078 46.7488C97.7381 47.6272 98.0239 48.716 98.1652 50.0152C98.2947 51.2013 98.2584 52.2835 98.0566 53.2616C97.8589 54.2346 97.5171 55.0823 97.0312 55.8046C96.5501 56.5265 95.9396 57.1048 95.1997 57.5397C94.4641 57.9693 93.6207 58.2341 92.6695 58.3341C91.6005 58.4464 90.6396 58.3403 89.7866 58.0158C88.9336 57.6912 88.2306 57.2081 87.6775 56.5664C87.1245 55.9246 86.7634 55.1842 86.5942 54.345L90.4649 53.9381C90.6051 54.3662 90.8457 54.6622 91.1867 54.8264C91.5272 54.9858 91.9047 55.0437 92.3191 55.0002C93.1478 54.913 93.7153 54.4916 94.0215 53.7357C94.3319 52.9747 94.4264 51.9935 94.3049 50.7923L94.2201 50.8012C94.083 51.2631 93.845 51.6714 93.5062 52.026C93.1673 52.3806 92.7596 52.6686 92.283 52.8901C91.8063 53.1116 91.2926 53.2513 90.7416 53.3092C89.8705 53.4007 89.0871 53.2855 88.3915 52.9635C87.6954 52.6367 87.1278 52.1512 86.6887 51.5071C86.2492 50.8582 85.981 50.096 85.8842 49.2207C85.7716 48.1946 85.9196 47.2697 86.3282 46.446C86.7367 45.6223 87.3541 44.9504 88.1802 44.4303C89.0063 43.9102 89.9915 43.59 91.1357 43.4698ZM91.4758 46.4334C91.085 46.4745 90.7459 46.6006 90.4586 46.8117C90.1761 47.0223 89.9638 47.2898 89.8217 47.6142C89.6843 47.9381 89.6383 48.2929 89.6836 48.6785C89.7289 49.0641 89.8524 49.4011 90.0541 49.6894C90.2605 49.9771 90.5214 50.1949 90.8369 50.3426C91.1571 50.4899 91.5126 50.543 91.9034 50.5019C92.1907 50.4717 92.4515 50.3943 92.686 50.2697C92.92 50.1404 93.1168 49.9745 93.2764 49.772C93.4402 49.5644 93.5587 49.3329 93.6319 49.0776C93.7093 48.8172 93.7305 48.5436 93.6956 48.2568C93.6503 47.8712 93.5245 47.5345 93.3181 47.2467C93.1117 46.959 92.8484 46.7414 92.5282 46.5942C92.208 46.4469 91.8572 46.3933 91.4758 46.4334ZM102.163 42.5107L107.051 41.997L111.274 49.8371L111.444 49.8193L113.945 41.2724L118.833 40.7587L120.353 55.2245L116.51 55.6283L115.632 47.2653L115.518 47.2772L113.165 55.8657L110.848 56.1092L106.754 48.1412L106.641 48.1531L107.526 56.5726L103.683 56.9765L102.163 42.5107ZM125.525 54.6808L121.287 55.1263L124.542 40.1586L129.91 39.5944L136.205 53.5583L131.967 54.0038L127.701 43.8543L127.588 43.8662L125.525 54.6808ZM124.134 49.0568L132.102 48.2194L132.41 51.1577L124.443 51.9951L124.134 49.0568ZM143.341 42.7533C143.254 42.2863 143.038 41.9376 142.695 41.707C142.357 41.476 141.87 41.3939 141.234 41.4607C140.829 41.5033 140.502 41.5876 140.254 41.7137C140.009 41.8346 139.834 41.9839 139.729 42.1616C139.624 42.3393 139.58 42.5343 139.598 42.7467C139.607 42.9219 139.654 43.0765 139.74 43.2103C139.829 43.3389 139.96 43.4514 140.132 43.5475C140.304 43.639 140.519 43.7164 140.778 43.7796C141.037 43.8429 141.342 43.8917 141.693 43.9262L142.906 44.0558C143.725 44.1412 144.433 44.2928 145.032 44.5108C145.631 44.7287 146.132 45.007 146.534 45.3456C146.936 45.6795 147.246 46.0706 147.464 46.519C147.688 46.9669 147.831 47.466 147.893 48.0165C147.988 48.9682 147.835 49.7984 147.434 50.5071C147.032 51.2159 146.411 51.7881 145.572 52.2239C144.737 52.6592 143.707 52.9412 142.483 53.0699C141.225 53.2021 140.109 53.1314 139.132 52.8579C138.161 52.5839 137.376 52.0879 136.777 51.3701C136.182 50.6471 135.818 49.6807 135.686 48.471L139.416 48.0791C139.486 48.5192 139.636 48.8796 139.865 49.1602C140.094 49.4408 140.396 49.64 140.771 49.7577C141.149 49.875 141.588 49.9074 142.088 49.855C142.507 49.8109 142.852 49.7222 143.124 49.589C143.395 49.4557 143.595 49.2895 143.721 49.0905C143.848 48.8915 143.901 48.6741 143.881 48.4381C143.853 48.2173 143.76 48.0319 143.601 47.882C143.447 47.7268 143.205 47.5999 142.876 47.5012C142.546 47.3978 142.106 47.3154 141.557 47.2541L140.084 47.0948C138.774 46.9516 137.715 46.5939 136.907 46.0218C136.104 45.4445 135.645 44.5905 135.531 43.4598C135.43 42.5421 135.59 41.7135 136.012 40.974C136.439 40.2293 137.072 39.6177 137.912 39.139C138.757 38.6598 139.751 38.3601 140.895 38.2398C142.063 38.1171 143.094 38.2063 143.987 38.5076C144.881 38.8089 145.595 39.2908 146.132 39.9533C146.672 40.6106 146.994 41.4123 147.098 42.3583L143.341 42.7533ZM147.805 40.9129L147.473 37.7485L160.046 36.427L160.378 39.5914L156.027 40.0487L157.215 51.3501L153.344 51.7569L152.156 40.4555L147.805 40.9129ZM162.597 50.7844L161.077 36.3186L171.502 35.2229L171.835 38.3873L165.337 39.0703L165.598 41.5566L171.559 40.93L171.892 44.0944L165.931 44.7209L166.192 47.2072L172.662 46.5272L172.994 49.6916L162.597 50.7844ZM174.524 49.5309L173.003 35.0651L179.247 34.4088C180.321 34.296 181.281 34.3927 182.127 34.6989C182.973 35.0051 183.659 35.502 184.183 36.1895C184.708 36.8771 185.024 37.7342 185.132 38.7607C185.241 39.7967 185.102 40.6944 184.715 41.454C184.333 42.213 183.747 42.8174 182.956 43.2671C182.17 43.7163 181.226 43.9988 180.125 44.1146L176.395 44.5066L176.074 41.4552L179.013 41.1464C179.474 41.0979 179.861 41.0001 180.175 40.8529C180.492 40.7005 180.724 40.488 180.872 40.2155C181.024 39.9424 181.078 39.601 181.035 39.1913C180.992 38.7769 180.867 38.4496 180.661 38.2095C180.459 37.9641 180.187 37.7975 179.844 37.7097C179.506 37.6167 179.106 37.5945 178.645 37.643L177.26 37.7885L178.451 49.1181L174.524 49.5309ZM182.302 42.0004L186.616 48.2599L182.35 48.7083L178.12 42.4399L182.302 42.0004Z" fill="#0A0A0A"/>
</g>
<defs>
<filter id="filter0_d_0_139" x="0" y="7.20069e-05" width="227.219" height="102.21" filterUnits="userSpaceOnUse" color-interpolation-filters="sRGB">
<feFlood flood-opacity="0" result="BackgroundImageFix"/>
<feColorMatrix in="SourceAlpha" type="matrix" values="0 0 0 0 0 0 0 0 0 0 0 0 0 0 0 0 0 0 127 0" result="hardAlpha"/>
<feOffset dx="4" dy="4"/>
<feComposite in2="hardAlpha" operator="out"/>
<feColorMatrix type="matrix" values="0 0 0 0 0 0 0 0 0 0 0 0 0 0 0 0 0 0 1 0"/>
<feBlend mode="normal" in2="BackgroundImageFix" result="effect1_dropShadow_0_139"/>
<feBlend mode="normal" in="SourceGraphic" in2="effect1_dropShadow_0_139" result="shape"/>
</filter>
</defs>
</svg>
