<svg width="167" height="40" viewBox="0 0 167 40" fill="none" xmlns="http://www.w3.org/2000/svg">
<g clip-path="url(#clip0_0_87)">
<path d="M18.2045 0.240436C29.687 -1.5422 40.8716 6.78081 41.3801 18.606C41.4843 21.0443 41.029 27.303 37.2637 26.2854C36.714 26.1372 31.4716 22.8488 30.9292 22.3558C29.2656 20.8379 29.8734 19.4851 29.3504 17.5811C28.7789 15.4973 26.7134 13.4281 24.6939 12.7165C21.1053 11.4536 16.432 13.6248 14.7539 9.03461C14.1219 7.30298 14.2163 3.65513 15.2697 2.15422C15.892 1.26776 17.1221 0.405585 18.2069 0.238008L18.2045 0.240436Z" fill="#F79D33"/>
<path d="M29.2075 24.7359C29.762 24.7043 30.3286 25.0346 30.8008 25.2896C32.0672 25.9696 34.6655 27.5094 35.7648 28.3522C39.087 30.895 35.6607 33.7753 33.4426 35.5337C28.9702 39.0795 24.907 39.8519 19.2796 39.8567C17.6306 39.8567 15.8726 38.7541 15.0784 37.3212C14.2139 35.762 14.2309 31.337 15.2697 29.8336C17.6887 26.3388 21.7955 28.4906 25.016 27.269C26.6238 26.6594 27.5658 24.8282 29.2075 24.7359Z" fill="#EE7815"/>
<path d="M3.84768 0.240439C6.91808 -0.279294 11.4171 0.0922913 12.0564 3.88586C12.3203 5.4572 12.2913 14.0352 11.9038 15.4244C10.5333 20.323 1.0606 20.3084 0.21309 14.8294C-0.0532697 13.1099 -0.0338982 4.84032 0.406805 3.33455C0.847509 1.82878 2.35365 0.49302 3.84768 0.240439Z" fill="#F79D33"/>
<path d="M10.3711 38.8488C9.11191 39.8519 6.19165 40.0656 4.60802 39.983C2.07276 39.8543 0.368064 37.6758 0.162241 35.2617C-0.0435824 32.8476 -0.0726398 27.9101 0.188877 25.5519C0.624737 21.6102 4.23027 21.071 7.54281 21.3163C10.1774 21.5131 11.882 23.2593 12.1097 25.8992C12.3155 28.2793 12.3373 33.0856 12.1 35.4414C11.9934 36.493 11.1823 38.2028 10.3735 38.8488H10.3711Z" fill="#F79D33"/>
<path d="M45.9785 9.41834C45.9785 7.83728 47.1698 6.71281 48.6396 6.71281C50.1094 6.71281 51.3008 7.83728 51.3008 9.41834C51.3008 10.9994 50.1094 12.1239 48.6396 12.1239C47.1698 12.1239 45.9785 10.9994 45.9785 9.41834ZM46.2981 28.714V16.2526C46.2981 14.9557 47.3466 13.9041 48.6396 13.9041C49.9327 13.9041 50.9812 14.9557 50.9812 16.2526V28.714C50.9812 30.0109 49.9327 31.0625 48.6396 31.0625C47.3466 31.0625 46.2981 30.0109 46.2981 28.714Z" fill="#F79D33"/>
<path d="M53.1484 22.4845C53.1484 17.3479 57.059 13.6903 61.8801 13.6903C66.7012 13.6903 70.6118 17.3479 70.6118 22.4845C70.6118 27.6211 66.7036 31.2787 61.8801 31.2787C57.0566 31.2787 53.1484 27.6211 53.1484 22.4845ZM65.8561 22.4845C65.8561 19.8446 64.0764 17.9624 61.8801 17.9624C59.6838 17.9624 57.9041 19.8446 57.9041 22.4845C57.9041 25.1245 59.6838 27.0067 61.8801 27.0067C64.0764 27.0067 65.8561 25.1245 65.8561 22.4845Z" fill="#F79D33"/>
<path d="M88.6444 20.6242V28.7505C88.6444 30.0279 87.6104 31.065 86.3367 31.065C85.063 31.065 84.0291 30.0328 84.0291 28.7505V21.4159C84.0291 19.2811 82.4672 17.9624 80.656 17.9624C78.7382 17.9624 77.2127 19.4924 77.2127 21.5592V28.7505C77.2127 30.0279 76.1787 31.065 74.9051 31.065C73.6314 31.065 72.5974 30.0279 72.5974 28.7505V16.2186C72.5974 14.9411 73.6314 13.9041 74.9051 13.9041C76.0649 13.9041 77.0263 14.7638 77.1885 15.8834C78.3387 14.5064 80.0627 13.6903 82.2517 13.6903C86.1212 13.6903 88.6419 16.2186 88.6419 20.6242H88.6444Z" fill="#F79D33"/>
<path d="M107.74 16.255V28.7165C107.74 30.0134 106.691 31.065 105.398 31.065C104.282 31.065 103.347 30.2805 103.113 29.2313C101.773 30.5282 100.03 31.2787 98.1219 31.2787C93.9062 31.2787 90.4895 27.6211 90.4895 22.4845C90.4895 17.3479 93.9062 13.6903 98.1219 13.6903C100.03 13.6903 101.773 14.4408 103.113 15.7377C103.347 14.6885 104.282 13.9041 105.398 13.9041C106.691 13.9041 107.74 14.9557 107.74 16.2526V16.255ZM103.195 22.4845C103.195 19.8446 101.415 17.9624 99.2188 17.9624C97.0226 17.9624 95.2428 19.8446 95.2428 22.4845C95.2428 25.1245 97.0226 27.0067 99.2188 27.0067C101.415 27.0067 103.195 25.1245 103.195 22.4845Z" fill="#F79D33"/>
<path d="M124.583 30.657C123.559 31.3855 122.14 31.1403 121.414 30.1129L117.007 23.8689L114.91 25.6345V28.7165C114.91 30.0134 113.861 31.065 112.568 31.065C111.275 31.065 110.227 30.0134 110.227 28.7165V8.28172C110.227 6.98482 111.275 5.93321 112.568 5.93321C113.861 5.93321 114.91 6.98482 114.91 8.28172V19.711L121.167 14.3534C122.131 13.5276 123.588 13.6636 124.402 14.6375C125.218 15.6114 125.09 17.0662 124.119 17.8822L120.501 20.9253L125.123 27.4778C125.85 28.5052 125.605 29.9284 124.581 30.657H124.583Z" fill="#F06B56"/>
<path d="M126.833 9.41834C126.833 7.83728 128.024 6.71281 129.494 6.71281C130.964 6.71281 132.155 7.83728 132.155 9.41834C132.155 10.9994 130.964 12.1239 129.494 12.1239C128.024 12.1239 126.833 10.9994 126.833 9.41834ZM127.153 28.714V16.2526C127.153 14.9557 128.201 13.9041 129.494 13.9041C130.787 13.9041 131.836 14.9557 131.836 16.2526V28.714C131.836 30.0109 130.787 31.0625 129.494 31.0625C128.201 31.0625 127.153 30.0109 127.153 28.714Z" fill="#F06B56"/>
<path d="M151.253 8.2793V28.714C151.253 30.0109 150.205 31.0625 148.912 31.0625C147.795 31.0625 146.861 30.2781 146.626 29.2289C145.287 30.5258 143.543 31.2763 141.635 31.2763C137.42 31.2763 134.003 27.6187 134.003 22.4821C134.003 17.3455 137.42 13.6879 141.635 13.6879C143.517 13.6879 145.238 14.4165 146.57 15.6794V8.27687C146.57 6.97997 147.619 5.92836 148.912 5.92836C150.205 5.92836 151.253 6.97997 151.253 8.27687V8.2793ZM146.711 22.4845C146.711 19.8446 144.931 17.9624 142.735 17.9624C140.538 17.9624 138.759 19.8446 138.759 22.4845C138.759 25.1245 140.538 27.0067 142.735 27.0067C144.931 27.0067 146.711 25.1245 146.711 22.4845Z" fill="#F06B56"/>
<path d="M160.096 31.2423C157.973 31.2568 156.014 30.7905 154.343 29.8142C153.76 29.4621 153.37 28.8185 153.382 28.0874C153.401 27.0091 154.287 26.1518 155.36 26.1712C155.636 26.1761 155.895 26.2392 156.133 26.3461C157.3 26.8804 158.704 27.3321 160.07 27.3491C161.443 27.3856 162.336 26.9727 162.363 26.1494C162.394 23.592 153.459 25.003 153.563 19.0213C153.621 15.7474 156.355 13.6223 160.472 13.6952C162.361 13.7292 163.918 14.2222 165.453 14.9727C166.116 15.2957 166.569 15.9854 166.554 16.7772C166.535 17.8652 165.642 18.7322 164.557 18.7128C164.281 18.708 164.022 18.6472 163.784 18.5404C162.438 17.9332 161.13 17.5981 160.225 17.6078C159.019 17.6223 158.227 18.2125 158.213 18.9605C158.135 21.4523 167.107 19.9709 167 26.0231C166.944 29.156 164.496 31.2131 160.094 31.2423H160.096Z" fill="#F06B56"/>
<path d="M29.2075 24.7359C29.762 24.7043 30.3286 25.0346 30.8008 25.2896C32.0672 25.9696 34.6655 27.5094 35.7648 28.3522C39.087 30.895 35.6607 33.7753 33.4426 35.5337C28.9702 39.0795 24.907 39.8519 19.2796 39.8567C17.6306 39.8567 15.8726 38.7541 15.0784 37.3212C14.2139 35.762 14.2309 31.337 15.2697 29.8336C17.6887 26.3388 21.7955 28.4906 25.016 27.269C26.6238 26.6594 27.5658 24.8282 29.2075 24.7359Z" fill="#F79D33"/>
<path d="M38.5495 25.5641C37.9683 25.4062 32.4305 21.9356 31.859 21.4135C30.1035 19.8106 30.7427 18.3825 30.1906 16.3716C29.5853 14.1712 27.406 11.983 25.2727 11.2325C21.4831 9.89678 16.5458 12.1919 14.7733 7.34426C14.5771 6.80753 14.4464 6.0935 14.3907 5.3139C14.289 6.69095 14.4197 8.12629 14.7515 9.03461C16.4295 13.6248 21.1029 11.4511 24.6915 12.7165C26.711 13.4281 28.7765 15.4997 29.348 17.5811C29.871 19.4851 29.2632 20.8355 30.9267 22.3558C31.4691 22.8488 36.7116 26.1372 37.2612 26.2854C38.3243 26.572 39.1233 26.2805 39.7214 25.6563C39.3679 25.7049 38.9781 25.6806 38.547 25.5641H38.5495Z" fill="#EB8625"/>
<path opacity="0.57" d="M41.3801 18.606C41.0072 9.9405 34.9028 3.15726 27.1469 0.850031C25.1419 0.427445 23.0812 0.194294 21.0496 0.233152C19.6428 0.259867 18.3304 0.541592 16.984 0.932606C16.7395 1.00304 16.4949 1.0759 16.2552 1.15118C15.9089 1.41834 15.599 1.72192 15.3592 2.03279C15.967 1.54948 16.6983 1.17547 17.3763 1.07104C28.8588 -0.711596 40.0435 7.61141 40.552 19.4366C40.6222 21.0419 40.4479 24.2987 39.2468 26.0498C41.1985 24.8063 41.4625 20.5222 41.3801 18.606Z" fill="#FFAF5F"/>
<path d="M0.549674 14.3339C0.283314 12.6169 0.302686 4.3643 0.74339 2.86096C0.837826 2.54281 0.985534 2.22708 1.17441 1.9235C0.820876 2.36066 0.549674 2.84396 0.404387 3.33455C-0.0363167 4.84275 -0.0556882 13.1099 0.210671 14.8294C1.00491 19.9733 9.40733 20.2987 11.5624 16.2647C9.01021 19.7547 1.30759 19.2447 0.547252 14.3339H0.549674Z" fill="#EB8625"/>
<path d="M10.8045 38.3315C9.55262 39.3297 6.65172 39.5386 5.07778 39.4584C2.55705 39.3297 0.864461 37.1658 0.661059 34.7687C0.457658 32.3886 0.4286 27.4633 0.687695 25.1196C0.823296 23.9029 1.26158 23.0115 1.90084 22.3704C0.995219 23.0285 0.358378 24.0389 0.191299 25.5543C-0.0702179 27.9126 -0.038739 32.8695 0.164663 35.2641C0.370486 37.6782 2.07519 39.8567 4.61044 39.9854C6.19407 40.0656 9.11434 39.8543 10.3735 38.8512C10.5817 38.6861 10.7876 38.4505 10.9837 38.1736C10.9256 38.2319 10.865 38.2854 10.8069 38.3339H10.8045V38.3315Z" fill="#EE8625"/>
<path d="M12.1072 25.9016C11.8796 23.2617 10.1773 21.5155 7.54039 21.3188C5.46521 21.1633 3.2738 21.3188 1.82093 22.4262C3.29559 21.6151 5.28118 21.5058 7.17475 21.6466C9.90372 21.8506 11.669 23.66 11.9038 26.3947C12.1169 28.8597 12.1411 33.8385 11.8942 36.2793C11.8942 36.3084 11.8845 36.34 11.882 36.3716C11.9934 36.0389 12.0709 35.7183 12.0976 35.4438C12.3349 33.088 12.3106 28.2817 12.1072 25.9016Z" fill="#FFAF5F"/>
<path d="M12.0564 3.88585C11.4171 0.0898621 6.91808 -0.281723 3.84768 0.240439C2.35365 0.493019 0.830555 1.8895 0.406802 3.33455C0.150128 4.21129 0.0363203 7.38069 0.0387417 10.2149C0.0435846 7.49727 0.157393 4.55859 0.401959 3.72071C0.820869 2.29508 2.32459 0.915606 3.79925 0.665454C6.8309 0.153007 11.2718 0.517306 11.9038 4.26473C12.1654 5.81664 12.1363 14.2854 11.7513 15.6551C11.6447 16.0316 11.4922 16.3813 11.2961 16.6995C11.5624 16.3206 11.7707 15.8956 11.9014 15.4244C12.2888 14.0376 12.3203 5.4572 12.054 3.88585H12.0564Z" fill="#FFAF5F"/>
<path d="M26.8975 25.9794C27.0887 25.8312 27.2728 25.6734 27.4544 25.5155C27.2679 25.6612 27.0815 25.8191 26.8975 25.9794Z" fill="#EB8625"/>
<path d="M33.9899 34.793C29.5998 38.2708 25.6141 39.0285 20.0908 39.0358C18.4732 39.0358 16.7467 37.9551 15.967 36.5489C15.1171 35.0188 15.1341 30.6764 16.1559 29.2022C16.3884 28.867 16.6354 28.5853 16.8969 28.3473C16.3012 28.6679 15.7491 29.1366 15.2672 29.8336C14.2284 31.337 14.2115 35.762 15.0759 37.3212C15.8702 38.7541 17.6306 39.8567 19.2772 39.8567C24.907 39.8519 28.9678 39.0795 33.4402 35.5337C34.5056 34.6885 35.8471 33.5859 36.5881 32.3862C35.8447 33.2993 34.8277 34.1299 33.9875 34.7954L33.9899 34.793Z" fill="#EB8625"/>
<path opacity="0.57" d="M14.9985 30.6084C17.4175 27.1135 21.5243 29.2653 24.7448 28.0437C26.3526 27.4341 27.2946 25.6029 28.9363 25.5106C29.4908 25.4791 30.0574 25.8094 30.5296 26.0644C31.796 26.7444 34.3943 28.2842 35.4936 29.1269C36.7043 30.0546 37.0167 31.0261 36.8181 31.9733C37.392 30.7905 37.3097 29.5349 35.7648 28.3522C34.6655 27.5094 32.0672 25.9696 30.8008 25.2896C30.3286 25.037 29.762 24.7043 29.2075 24.7359C27.5658 24.8282 26.6238 26.6594 25.016 27.269C21.7955 28.4906 17.6863 26.3388 15.2697 29.8336C15.0663 30.1275 14.9016 30.5355 14.7757 31.0115C14.8435 30.861 14.9185 30.725 14.9985 30.6084Z" fill="#FFAF5F"/>
</g>
<defs>
<clipPath id="clip0_0_87">
<rect width="167" height="40" fill="white"/>
</clipPath>
</defs>
</svg>
