<svg width="120" height="120" viewBox="0 0 120 120" fill="none" xmlns="http://www.w3.org/2000/svg">
<g filter="url(#filter0_d_0_287)">
<mask id="path-1-inside-1_0_287" fill="white">
<path d="M0 24C0 10.7452 10.7452 0 24 0H88C101.255 0 112 10.7452 112 24V88C112 101.255 101.255 112 88 112H24C10.7452 112 0 101.255 0 88V24Z"/>
</mask>
<path d="M0 24C0 10.7452 10.7452 0 24 0H88C101.255 0 112 10.7452 112 24V88C112 101.255 101.255 112 88 112H24C10.7452 112 0 101.255 0 88V24Z" fill="#F7941D" shape-rendering="crispEdges"/>
<path d="M24 0V4H88V0V-4H24V0ZM112 24H108V88H112H116V24H112ZM88 112V108H24V112V116H88V112ZM0 88H4V24H0H-4V88H0ZM24 112V108C12.9543 108 4 99.0457 4 88H0H-4C-4 103.464 8.53603 116 24 116V112ZM112 88H108C108 99.0457 99.0457 108 88 108V112V116C103.464 116 116 103.464 116 88H112ZM88 0V4C99.0457 4 108 12.9543 108 24H112H116C116 8.53603 103.464 -4 88 -4V0ZM24 0V-4C8.53603 -4 -4 8.53603 -4 24H0H4C4 12.9543 12.9543 4 24 4V0Z" fill="white" mask="url(#path-1-inside-1_0_287)"/>
<path d="M62.78 40.7802C63.0314 41.0318 63.3454 41.2119 63.6895 41.3018C64.0337 41.3917 64.3956 41.3881 64.738 41.2915C65.0803 41.1949 65.3907 41.0088 65.6372 40.7523C65.8836 40.4957 66.0572 40.1781 66.14 39.8322C66.3476 38.968 66.7818 38.1747 67.3979 37.5341C68.014 36.8935 68.7897 36.4287 69.6452 36.1876C70.5007 35.9465 71.4049 35.9378 72.2649 36.1623C73.1248 36.3869 73.9094 36.8366 74.5378 37.4652C75.1661 38.0937 75.6156 38.8784 75.8399 39.7385C76.0641 40.5985 76.0551 41.5028 75.8137 42.3582C75.5723 43.2135 75.1072 43.9891 74.4664 44.605C73.8256 45.2209 73.0322 45.6549 72.168 45.8622C71.822 45.945 71.5044 46.1185 71.2479 46.365C70.9914 46.6114 70.8052 46.9218 70.7086 47.2642C70.612 47.6065 70.6085 47.9684 70.6984 48.3126C70.7883 48.6568 70.9683 48.9708 71.22 49.2222L74.586 52.5862C75.0343 53.0345 75.39 53.5667 75.6326 54.1525C75.8753 54.7383 76.0001 55.3661 76.0001 56.0002C76.0001 56.6342 75.8753 57.2621 75.6326 57.8478C75.39 58.4336 75.0343 58.9659 74.586 59.4142L71.22 62.7802C70.9686 63.0318 70.6546 63.2119 70.3104 63.3018C69.9662 63.3917 69.6043 63.3881 69.262 63.2915C68.9196 63.1949 68.6092 63.0088 68.3628 62.7523C68.1163 62.4957 67.9428 62.1781 67.86 61.8322C67.6524 60.968 67.2181 60.1747 66.602 59.5341C65.9859 58.8935 65.2102 58.4287 64.3547 58.1876C63.4993 57.9465 62.595 57.9378 61.7351 58.1623C60.8751 58.3869 60.0905 58.8366 59.4622 59.4652C58.8338 60.0937 58.3843 60.8784 58.1601 61.7385C57.9358 62.5985 57.9448 63.5028 58.1863 64.3582C58.4277 65.2135 58.8927 65.9891 59.5335 66.605C60.1743 67.2209 60.9677 67.6549 61.832 67.8622C62.1779 67.945 62.4955 68.1185 62.7521 68.365C63.0086 68.6114 63.1947 68.9218 63.2913 69.2642C63.3879 69.6065 63.3915 69.9684 63.3016 70.3126C63.2117 70.6568 63.0316 70.9708 62.78 71.2222L59.414 74.5862C58.9656 75.0345 58.4334 75.3902 57.8476 75.6328C57.2619 75.8755 56.634 76.0004 56 76.0004C55.3659 76.0004 54.7381 75.8755 54.1523 75.6328C53.5665 75.3902 53.0343 75.0345 52.586 74.5862L49.22 71.2202C48.9686 70.9685 48.6546 70.7885 48.3104 70.6986C47.9662 70.6087 47.6043 70.6122 47.262 70.7088C46.9196 70.8054 46.6092 70.9916 46.3628 71.2481C46.1163 71.5046 45.9428 71.8222 45.86 72.1682C45.6524 73.0324 45.2181 73.8256 44.602 74.4662C43.9859 75.1068 43.2102 75.5716 42.3547 75.8127C41.4993 76.0538 40.595 76.0626 39.7351 75.838C38.8751 75.6135 38.0905 75.1638 37.4622 74.5352C36.8338 73.9066 36.3843 73.1219 36.1601 72.2619C35.9358 71.4018 35.9448 70.4976 36.1863 69.6422C36.4277 68.7868 36.8927 68.0112 37.5335 67.3953C38.1743 66.7795 38.9677 66.3455 39.832 66.1382C40.1779 66.0554 40.4955 65.8818 40.7521 65.6354C41.0086 65.3889 41.1947 65.0785 41.2913 64.7362C41.3879 64.3938 41.3915 64.0319 41.3016 63.6877C41.2117 63.3436 41.0316 63.0296 40.78 62.7782L37.414 59.4142C36.9656 58.9659 36.61 58.4336 36.3673 57.8478C36.1247 57.2621 35.9998 56.6342 35.9998 56.0002C35.9998 55.3661 36.1247 54.7383 36.3673 54.1525C36.61 53.5667 36.9656 53.0345 37.414 52.5862L40.78 49.2202C41.0314 48.9685 41.3454 48.7885 41.6895 48.6986C42.0337 48.6087 42.3956 48.6122 42.738 48.7088C43.0803 48.8054 43.3907 48.9916 43.6372 49.2481C43.8836 49.5046 44.0572 49.8222 44.14 50.1682C44.3476 51.0324 44.7818 51.8256 45.3979 52.4662C46.014 53.1068 46.7897 53.5716 47.6452 53.8127C48.5007 54.0539 49.4049 54.0626 50.2649 53.838C51.1248 53.6135 51.9094 53.1638 52.5378 52.5352C53.1661 51.9066 53.6156 51.1219 53.8399 50.2619C54.0641 49.4018 54.0551 48.4976 53.8137 47.6422C53.5723 46.7868 53.1072 46.0112 52.4664 45.3953C51.8256 44.7795 51.0322 44.3455 50.168 44.1382C49.822 44.0554 49.5044 43.8818 49.2479 43.6354C48.9914 43.3889 48.8052 43.0785 48.7086 42.7362C48.612 42.3938 48.6085 42.0319 48.6984 41.6877C48.7883 41.3436 48.9683 41.0296 49.22 40.7782L52.586 37.4142C53.0343 36.9658 53.5665 36.6102 54.1523 36.3675C54.7381 36.1249 55.3659 36 56 36C56.634 36 57.2619 36.1249 57.8476 36.3675C58.4334 36.6102 58.9656 36.9658 59.414 37.4142L62.78 40.7802Z" fill="white" stroke="white" stroke-width="4" stroke-linecap="round" stroke-linejoin="round"/>
</g>
<defs>
<filter id="filter0_d_0_287" x="0" y="0" width="120" height="120" filterUnits="userSpaceOnUse" color-interpolation-filters="sRGB">
<feFlood flood-opacity="0" result="BackgroundImageFix"/>
<feColorMatrix in="SourceAlpha" type="matrix" values="0 0 0 0 0 0 0 0 0 0 0 0 0 0 0 0 0 0 127 0" result="hardAlpha"/>
<feOffset dx="8" dy="8"/>
<feComposite in2="hardAlpha" operator="out"/>
<feColorMatrix type="matrix" values="0 0 0 0 1 0 0 0 0 1 0 0 0 0 1 0 0 0 1 0"/>
<feBlend mode="normal" in2="BackgroundImageFix" result="effect1_dropShadow_0_287"/>
<feBlend mode="normal" in="SourceGraphic" in2="effect1_dropShadow_0_287" result="shape"/>
</filter>
</defs>
</svg>
