<svg width="120" height="120" viewBox="0 0 120 120" fill="none" xmlns="http://www.w3.org/2000/svg">
<g filter="url(#filter0_d_0_293)">
<mask id="path-1-inside-1_0_293" fill="white">
<path d="M0 24C0 10.7452 10.7452 0 24 0H88C101.255 0 112 10.7452 112 24V88C112 101.255 101.255 112 88 112H24C10.7452 112 0 101.255 0 88V24Z"/>
</mask>
<path d="M0 24C0 10.7452 10.7452 0 24 0H88C101.255 0 112 10.7452 112 24V88C112 101.255 101.255 112 88 112H24C10.7452 112 0 101.255 0 88V24Z" fill="#F05A4A" shape-rendering="crispEdges"/>
<path d="M24 0V4H88V0V-4H24V0ZM112 24H108V88H112H116V24H112ZM88 112V108H24V112V116H88V112ZM0 88H4V24H0H-4V88H0ZM24 112V108C12.9543 108 4 99.0457 4 88H0H-4C-4 103.464 8.53603 116 24 116V112ZM112 88H108C108 99.0457 99.0457 108 88 108V112V116C103.464 116 116 103.464 116 88H112ZM88 0V4C99.0457 4 108 12.9543 108 24H112H116C116 8.53603 103.464 -4 88 -4V0ZM24 0V-4C8.53603 -4 -4 8.53603 -4 24H0H4C4 12.9543 12.9543 4 24 4V0Z" fill="white" mask="url(#path-1-inside-1_0_293)"/>
<path d="M66.4661 62.656C66.1336 60.397 65.0025 58.332 63.2778 56.8356C61.5532 55.3392 59.3493 54.5106 57.0661 54.5H54.9381C52.6548 54.5106 50.4509 55.3392 48.7263 56.8356C47.0016 58.332 45.8705 60.397 45.5381 62.656L44.5181 69.788C44.4855 70.0185 44.507 70.2535 44.5809 70.4743C44.6549 70.6951 44.7792 70.8956 44.9441 71.06C45.3441 71.46 47.7981 73.5 56.0041 73.5C64.2101 73.5 66.6581 71.468 67.0641 71.06C67.2289 70.8956 67.3532 70.6951 67.4272 70.4743C67.5011 70.2535 67.5226 70.0185 67.4901 69.788L66.4661 62.656Z" fill="white"/>
<path d="M47.1199 55.6C45.187 57.3819 43.9293 59.7771 43.5599 62.38L42.8199 67.5C36.8799 67.46 35.0799 65.3 34.7799 64.86C34.664 64.7002 34.5812 64.5187 34.5366 64.3263C34.4919 64.134 34.4863 63.9346 34.5199 63.74L34.9599 61.26C35.1892 59.9639 35.7276 58.7422 36.5295 57.6985C37.3314 56.6547 38.3732 55.8197 39.5664 55.2643C40.7597 54.7089 42.0694 54.4494 43.3843 54.5078C44.6992 54.5663 45.9806 54.9409 47.1199 55.6Z" fill="white"/>
<path d="M77.48 63.74C77.5137 63.9346 77.508 64.134 77.4634 64.3263C77.4187 64.5187 77.336 64.7002 77.22 64.86C76.92 65.3 75.12 67.46 69.18 67.5L68.44 62.38C68.0706 59.7771 66.8129 57.3819 64.88 55.6C66.0193 54.9409 67.3008 54.5663 68.6157 54.5078C69.9306 54.4494 71.2402 54.7089 72.4335 55.2643C73.6268 55.8197 74.6686 56.6547 75.4705 57.6985C76.2724 58.7422 76.8108 59.9639 77.04 61.26L77.48 63.74Z" fill="white"/>
<path d="M47.46 51.2C46.9566 51.914 46.2882 52.4959 45.5117 52.8963C44.7353 53.2968 43.8736 53.5038 43 53.5C42.1285 53.5 41.2695 53.2929 40.4938 52.8958C39.718 52.4987 39.0477 51.9229 38.5382 51.2159C38.0286 50.5089 37.6943 49.691 37.5629 48.8294C37.4315 47.9679 37.5067 47.0875 37.7822 46.2607C38.0578 45.434 38.5259 44.6845 39.148 44.0742C39.77 43.4638 40.5282 43.01 41.3601 42.7502C42.1919 42.4903 43.0736 42.4319 43.9325 42.5796C44.7913 42.7274 45.6028 43.0771 46.3 43.6C46.0995 44.3842 45.9987 45.1906 46 46C46.0015 47.8343 46.5065 49.633 47.46 51.2Z" fill="white"/>
<path d="M74.5 48C74.5006 48.7224 74.3587 49.4379 74.0824 50.1054C73.8062 50.7729 73.4011 51.3794 72.8903 51.8903C72.3795 52.4011 71.7729 52.8062 71.1054 53.0824C70.4379 53.3586 69.7225 53.5005 69 53.5C68.1264 53.5038 67.2648 53.2968 66.4883 52.8963C65.7118 52.4959 65.0435 51.914 64.54 51.2C65.4935 49.633 65.9985 47.8343 66 46C66.0014 45.1906 65.9006 44.3842 65.7 43.6C66.5172 42.9872 67.4888 42.614 68.5061 42.5222C69.5234 42.4305 70.5461 42.6239 71.4597 43.0807C72.3733 43.5374 73.1416 44.2396 73.6786 45.1085C74.2156 45.9773 74.5 46.9786 74.5 48Z" fill="white"/>
<path d="M56 53.5C60.1421 53.5 63.5 50.1421 63.5 46C63.5 41.8579 60.1421 38.5 56 38.5C51.8579 38.5 48.5 41.8579 48.5 46C48.5 50.1421 51.8579 53.5 56 53.5Z" fill="white"/>
</g>
<defs>
<filter id="filter0_d_0_293" x="0" y="0" width="120" height="120" filterUnits="userSpaceOnUse" color-interpolation-filters="sRGB">
<feFlood flood-opacity="0" result="BackgroundImageFix"/>
<feColorMatrix in="SourceAlpha" type="matrix" values="0 0 0 0 0 0 0 0 0 0 0 0 0 0 0 0 0 0 127 0" result="hardAlpha"/>
<feOffset dx="8" dy="8"/>
<feComposite in2="hardAlpha" operator="out"/>
<feColorMatrix type="matrix" values="0 0 0 0 1 0 0 0 0 1 0 0 0 0 1 0 0 0 1 0"/>
<feBlend mode="normal" in2="BackgroundImageFix" result="effect1_dropShadow_0_293"/>
<feBlend mode="normal" in="SourceGraphic" in2="effect1_dropShadow_0_293" result="shape"/>
</filter>
</defs>
</svg>
